<svg width="178" height="54" viewBox="10 7 178 54" fill="none" xmlns="http://www.w3.org/2000/svg">
<path d="M77.5159 44.4005V29.9232H81.2956V31.1034C82.4093 30.1985 83.8021 29.6478 85.4334 29.6478C87.4624 29.6478 89.2924 30.5526 90.4861 31.9689C91.4409 33.1097 91.9979 34.5654 91.9979 37.0438V44.4005H88.0589V36.7291C88.0589 35.3128 87.7407 34.5654 87.1837 34.0146C86.6665 33.5031 85.8709 33.2278 84.9954 33.2278C83.3247 33.2278 81.9717 34.29 81.4147 35.0374V44.4005H77.5159Z" fill="#151515"/>
<path d="M108.071 42.079C106.639 43.7313 104.331 44.6755 102.063 44.6755C97.6873 44.6755 94.3849 41.6856 94.3849 37.1615C94.3849 33.1487 97.17 29.6081 101.506 29.6081C105.565 29.6081 108.429 32.9914 108.429 37.0041C108.429 37.3975 108.39 37.7909 108.35 38.1056H98.2045C98.4032 40.1513 100.074 41.5282 102.143 41.5282C103.814 41.5282 105.127 40.5841 105.843 39.876L108.071 42.079ZM104.411 35.2731C104.292 33.9749 103.098 32.7553 101.506 32.7553C99.8752 32.7553 98.5624 33.9749 98.3633 35.2731H104.411Z" fill="#151515"/>
<path d="M111.134 44.3732V23.1688H115.073V30.9188C116.227 30.014 117.62 29.5813 119.211 29.5813C123.19 29.5813 126.412 32.8465 126.412 37.1345C126.412 39.1016 125.696 40.9112 124.542 42.2095C123.229 43.7044 121.2 44.6486 119.012 44.6486C117.54 44.6486 116.148 44.2158 114.954 43.1929V44.3732H111.134ZM115.073 39.2983C115.829 40.3604 117.142 41.1079 118.614 41.1079C120.803 41.1079 122.473 39.4556 122.473 37.1739C122.473 35.0889 121.001 33.2005 118.694 33.2005C117.182 33.2005 115.869 33.9086 115.073 35.0102V39.2983Z" fill="#151515"/>
<path d="M143.003 29.9244V44.4017H139.223V43.2215C138.069 44.2443 136.677 44.6771 135.284 44.6771C133.255 44.6771 131.465 43.7329 130.311 42.356C129.356 41.2151 128.839 39.7202 128.839 37.5958V29.9244H132.778V37.7531C132.778 39.0514 133.057 39.7202 133.494 40.2316C134.091 40.9004 134.926 41.1364 135.682 41.1364C137.353 41.1364 138.547 40.0349 139.104 39.3268V29.9244H143.003Z" fill="#151515"/>
<path d="M150.841 44.3732H146.902V23.1688H150.841V44.3732Z" fill="#151515"/>
<path d="M168.824 44.4001H165.044V43.2199C163.85 44.2427 162.458 44.6755 160.986 44.6755C158.797 44.6755 156.768 43.7313 155.456 42.2364C154.302 40.9381 153.585 39.1285 153.585 37.1615C153.585 32.9127 156.768 29.6081 160.787 29.6081C162.458 29.6081 163.93 30.1588 165.084 31.0637V29.8835H168.863V44.4001H168.824ZM164.885 34.9977C164.089 33.9355 162.776 33.1881 161.264 33.1881C158.957 33.1881 157.485 35.0764 157.485 37.1615C157.485 39.4432 159.155 41.0955 161.344 41.0955C162.816 41.0955 164.129 40.3874 164.885 39.2858V34.9977Z" fill="#151515"/>
<path d="M172.722 44.3732V23.1688H176.661V30.9188C177.815 30.014 179.207 29.5813 180.799 29.5813C184.777 29.5813 188 32.8465 188 37.1345C188 39.1016 187.284 40.9112 186.13 42.2095C184.817 43.7044 182.788 44.6486 180.6 44.6486C179.128 44.6486 177.735 44.2158 176.542 43.1929V44.3732H172.722ZM176.661 39.2983C177.417 40.3604 178.73 41.1079 180.202 41.1079C182.39 41.1079 184.061 39.4556 184.061 37.1739C184.061 35.0889 182.589 33.2005 180.282 33.2005C178.77 33.2005 177.457 33.9086 176.661 35.0102V39.2983Z" fill="#151515"/>
<path d="M37.2132 7C22.1743 7 10 19.0382 10 33.9088C10 48.7796 22.1743 60.8177 37.2132 60.8177C52.252 60.8177 64.4266 48.7796 64.4266 33.9088C64.4266 19.0382 52.252 7 37.2132 7ZM22.97 47.9138L26.2325 35.9152L32.1207 38.8657L35.1046 44.6881L22.97 47.9138ZM41.5498 47.5598L35.4627 35.7185L23.4872 29.6994L51.4564 19.943L41.5498 47.5598Z" fill="#5DBEFD"/>
</svg>
